<?xml version="1.0" encoding="UTF-8" standalone="no"?>
<!-- Created with Inkscape (http://www.inkscape.org/) -->
<svg
   xmlns:dc="http://purl.org/dc/elements/1.1/"
   xmlns:cc="http://web.resource.org/cc/"
   xmlns:rdf="http://www.w3.org/1999/02/22-rdf-syntax-ns#"
   xmlns:svg="http://www.w3.org/2000/svg"
   xmlns="http://www.w3.org/2000/svg"
   xmlns:sodipodi="http://sodipodi.sourceforge.net/DTD/sodipodi-0.dtd"
   xmlns:inkscape="http://www.inkscape.org/namespaces/inkscape"
   width="400"
   height="400"
   id="svg2"
   sodipodi:version="0.32"
   inkscape:version="0.45+devel"
   version="1.0"
   sodipodi:docbase="C:\Documents and Settings\Mete    slam\Desktop"
   sodipodi:docname="laptop-lineart.svg"
   inkscape:output_extension="org.inkscape.output.svg.inkscape"
   inkscape:export-filename="C:\Documents and Settings\Mete    slam\Desktop\MyLaptop.png"
   inkscape:export-xdpi="98"
   inkscape:export-ydpi="98">
  <sodipodi:namedview
     id="base"
     pagecolor="#ffffff"
     bordercolor="#666666"
     borderopacity="1.0"
     gridtolerance="10000"
     guidetolerance="10"
     objecttolerance="10"
     inkscape:pageopacity="0.0"
     inkscape:pageshadow="2"
     inkscape:zoom="1.1575"
     inkscape:cx="200"
     inkscape:cy="200"
     inkscape:document-units="px"
     inkscape:current-layer="layer1"
     width="400px"
     height="400px"
     inkscape:window-width="829"
     inkscape:window-height="690"
     inkscape:window-x="0"
     inkscape:window-y="0"
     showguides="true"
     inkscape:guide-bbox="true" />
  <defs
     id="defs4" />
  <metadata
     id="metadata7">
    <rdf:RDF>
      <cc:Work
         rdf:about="">
        <dc:format>image/svg+xml</dc:format>
        <dc:type
           rdf:resource="http://purl.org/dc/dcmitype/StillImage" />
        <dc:title>Laptop in Line Art</dc:title>
        <dc:creator>
          <cc:Agent>
            <dc:title>Aurelio A. Heckert</dc:title>
          </cc:Agent>
        </dc:creator>
        <cc:license
           rdf:resource="http://creativecommons.org/licenses/publicdomain/" />
      </cc:Work>
      <cc:License
         rdf:about="http://creativecommons.org/licenses/publicdomain/">
        <cc:permits
           rdf:resource="http://web.resource.org/cc/Reproduction" />
        <cc:permits
           rdf:resource="http://web.resource.org/cc/Distribution" />
        <cc:permits
           rdf:resource="http://web.resource.org/cc/DerivativeWorks" />
      </cc:License>
    </rdf:RDF>
  </metadata>
  <g
     inkscape:groupmode="layer"
     id="layer1"
     inkscape:label="Layer 1">
    <path
       id="path2172"
       sodipodi:nodetypes="cccccc"
       d="M 95.758738,261.61468 L 68.307573,278.59889 L 233.3461,375.01483 L 393.09703,219.55258 L 250.10479,166.11978 L 233.35728,176.48157"
       style="fill:none;stroke:#000000;stroke-width:1;stroke-linejoin:round;stroke-linecap:round" />
    <path
       sodipodi:nodetypes="cccccc"
       id="path16273"
       d="M 277.69986,176.50516 C 177.30035,235.42715 239.60255,221.94517 101.71421,297.5792 L 189.47945,349.38523 C 273.70765,326.90703 361.51906,278.53736 355.07543,205.22753 L 295.56691,183.1214 L 277.69986,176.50516 z"
       style="fill:none;stroke:#000000;stroke-width:1;stroke-linejoin:round;stroke-linecap:round" />
    <path
       id="path2174"
       sodipodi:nodetypes="ccccc"
       d="M 68.171626,278.57262 L 68.303363,291.78988 L 232.57786,391.18452 C 235.83055,389.43142 237.23238,379.0975 233.63174,375.00319 L 68.171626,278.57262 z"
       style="fill:none;stroke:#000000;stroke-width:1;stroke-linejoin:round;stroke-linecap:round" />
    <path
       id="path2176"
       sodipodi:nodetypes="ccccc"
       d="M 393.07972,219.62716 C 394.063,222.66073 395.10956,229.26471 392.24335,231.97585 L 232.84133,390.92104 C 237.0608,386.09241 235.76133,380.47536 233.63174,374.73973 L 393.07972,219.62716 z"
       style="fill:none;stroke:#000000;stroke-width:1;stroke-linejoin:round;stroke-linecap:round" />
    <path
       d="M 232.03196,175.25672 C 242.79535,168.68591 249.44002,164.63325 249.44002,164.63325 L 249.96698,8.789858 L 34.974214,77.099241 C 34.974214,77.099241 63.42914,279.82741 65.53691,277.66987 C 66.050302,277.14436 77.223931,270.16877 93.834301,259.91639"
       sodipodi:nodetypes="ccccss"
       id="path2178"
       style="fill:none;stroke:#000000;stroke-width:1;stroke-linejoin:round;stroke-linecap:round" />
    <path
       inkscape:export-ydpi="98"
       inkscape:export-xdpi="98"
       d="M 34.857624,76.922068 C 32.924571,75.314723 31.532696,75.086033 27.898382,75.685479 L 243.62988,7.3609944 C 246.99845,6.2153931 248.93787,7.2693996 249.93941,8.795189"
       sodipodi:nodetypes="cccc"
       id="path2182"
       style="fill:none;stroke:#000000;stroke-width:1;stroke-linejoin:round;stroke-linecap:round" />
    <path
       id="path3155"
       sodipodi:nodetypes="ccccc"
       d="M 41.127572,89.515883 L 247.04644,21.857141 L 245.56959,155.03645 L 66.892268,262.94003 L 41.127572,89.515883 z"
       style="fill:none;stroke:#000000;stroke-width:1;stroke-linejoin:round;stroke-linecap:round" />
    <path
       id="path4130"
       sodipodi:nodetypes="ccccc"
       d="M 270.30146,173.89938 L 92.059548,291.88393 L 83.064049,286.84829 L 262.53913,170.82327 L 270.30146,173.89938 z"
       style="fill:none;stroke:#000000;stroke-width:1;stroke-linecap:round;stroke-linejoin:round" />
    <path
       id="path5126"
       sodipodi:nodetypes="ccc"
       d="M 113.88343,277.34844 L 133.41939,264.57042 L 113.88343,277.34844 z"
       style="fill:none;stroke:#000000;stroke-width:1;stroke-linejoin:round;stroke-linecap:round" />
    <path
       d="M 260.55944,282.16245 C 260.55944,282.16245 299.34305,249.72696 299.34305,249.72696 C 301.56567,247.86815 306.24993,247.63883 309.88553,249.20565 C 309.88553,249.20565 329.84533,258.35085 329.84533,258.35085 C 333.72062,260.02098 335.20178,263.00006 333.12496,265.03889 C 333.12496,265.03889 295.48329,298.8333 295.48329,298.8333 C 293.00243,301.26876 287.63847,301.62415 283.50796,299.61905 C 283.50796,299.61905 262.71041,289.52115 262.71041,289.52115 C 258.86144,287.6527 257.92393,284.36659 260.55944,282.16245 C 260.55944,282.16245 260.55944,282.16245 260.55944,282.16245"
       sodipodi:nodetypes="cccccccccc"
       id="rect2179"
       style="fill:none;stroke:#000000;stroke-width:1;stroke-linejoin:round;stroke-linecap:round" />
    <path
       d="M 156.31199,239.61556 C 158.84932,237.6711 165.25317,241.39833 164.88374,243.74344 L 156.31199,239.61556 z"
       sodipodi:nodetypes="ccc"
       id="path5322"
       style="fill:none;stroke:#000000;stroke-width:1;stroke-linejoin:round;stroke-linecap:round" />
    <path
       d="M 112.5495,278.27384 L 130.07045,266.61299 C 128.6036,263.60624 125.86497,261.45071 121.46704,261.8451 L 104.04747,273.28768 C 107.08494,271.21271 112.98604,275.81472 112.5495,278.27384 z"
       sodipodi:nodetypes="ccccc"
       id="path6299"
       style="fill:none;stroke:#000000;stroke-width:1;stroke-linejoin:round;stroke-linecap:round" />
    <path
       d="M 112.52259,278.36122 L 104.03121,273.29774"
       sodipodi:nodetypes="cc"
       id="path4349"
       style="fill:none;stroke:#000000;stroke-width:1;stroke-linecap:round;stroke-linejoin:round" />
    <path
       id="path8239"
       sodipodi:nodetypes="cccc"
       d="M 171.42447,229.78669 L 156.27423,239.63114 C 158.95009,237.51097 165.57347,241.76179 164.84019,243.7543 L 179.63884,233.97378"
       style="fill:none;stroke:#000000;stroke-width:1;stroke-linejoin:round;stroke-linecap:round" />
    <path
       d="M 179.54294,233.98976 L 194.50141,224.24118 C 193.46879,221.32711 190.97123,219.43825 185.96742,220.29382 L 170.84915,230.10631 C 173.88125,228.78365 179.05461,230.45474 179.54294,233.98976 z"
       sodipodi:nodetypes="ccccc"
       id="path8241"
       style="fill:none;stroke:#000000;stroke-width:1;stroke-linejoin:round;stroke-linecap:round" />
    <path
       id="path8243"
       sodipodi:nodetypes="ccccc"
       d="M 194.43749,224.22521 L 207.70194,215.40355 C 205.96614,212.71322 203.80418,211.59145 199.45559,211.72786 L 185.90349,220.3098 C 189.09541,219.56246 193.62952,220.65822 194.43749,224.22521 z"
       style="fill:none;stroke:#000000;stroke-width:1;stroke-linejoin:round;stroke-linecap:round" />
    <path
       d="M 207.74987,215.38757 L 219.33629,207.66862 C 217.34479,205.17006 215.05499,204.11222 211.28174,204.12078 L 199.40765,211.74385 C 202.7434,211.44397 205.80725,212.3959 207.74987,215.38757 z"
       sodipodi:nodetypes="ccccc"
       id="path8245"
       style="fill:none;stroke:#000000;stroke-width:1;stroke-linejoin:round;stroke-linecap:round" />
    <path
       id="path8247"
       sodipodi:nodetypes="ccccc"
       d="M 219.30433,207.70059 L 231.03457,199.96565 C 229.55448,196.50822 226.62543,195.89785 223.29965,196.19408 L 211.04202,204.2646 C 214.01019,203.93277 216.67451,204.42126 219.30433,207.70059 z"
       style="fill:none;stroke:#000000;stroke-width:1;stroke-linejoin:round;stroke-linecap:round" />
    <path
       id="rect2202"
       sodipodi:nodetypes="cccccccccc"
       d="M 221.68659,286.68216 C 221.68659,286.68216 271.7827,246.38199 271.7827,246.38199 C 272.38533,245.90267 273.62888,245.89275 274.57389,246.35926 C 274.57389,246.35926 282.22513,250.1218 282.22513,250.1218 C 283.18438,250.59535 283.48058,251.37156 282.88624,251.86264 C 282.88624,251.86264 233.55382,293.3224 233.55382,293.3224 C 232.81433,293.93337 231.39356,293.96431 230.37209,293.3911 C 230.37209,293.3911 222.1464,288.7742 222.1464,288.7742 C 221.14187,288.21048 220.9385,287.27719 221.68659,286.68216 C 221.68659,286.68216 221.68659,286.68216 221.68659,286.68216"
       style="fill:none;stroke:#000000;stroke-width:1;stroke-linejoin:round;stroke-linecap:round" />
    <path
       id="rect3291"
       d="M 302.87759,234.27933 C 302.87759,234.27933 308.38212,229.69548 308.38212,229.69548 C 308.92862,229.24038 308.77424,228.59985 308.03355,228.25718 C 308.03355,228.25718 300.43832,224.74347 300.43832,224.74347 C 299.65719,224.38211 298.56475,224.46487 297.99153,224.93134 C 297.99153,224.93134 292.2163,229.63113 292.2163,229.63113 C 291.63275,230.10601 291.81664,230.77156 292.62585,231.12111 C 292.62585,231.12111 300.49174,234.51889 300.49174,234.51889 C 301.25859,234.85015 302.32155,234.74235 302.87759,234.27933 C 302.87759,234.27933 302.87759,234.27933 302.87759,234.27933"
       style="fill:none;stroke:#000000;stroke-width:1;stroke-linejoin:round;stroke-linecap:round" />
    <path
       id="rect3293"
       d="M 235.3731,272.47703 C 235.3731,272.47703 227.42329,268.6228 227.42329,268.6228 C 226.73948,268.29128 225.78761,268.33455 225.2875,268.71966 C 225.2875,268.71966 219.50192,273.17479 219.50192,273.17479 C 218.99549,273.56477 219.13572,274.15174 219.81793,274.49107 C 219.81793,274.49107 227.7497,278.43631 227.7497,278.43631 C 228.44749,278.78339 229.41954,278.74258 229.9276,278.34461 C 229.9276,278.34461 235.73123,273.79845 235.73123,273.79845 C 236.23285,273.4055 236.07241,272.81607 235.3731,272.47703 C 235.3731,272.47703 235.3731,272.47703 235.3731,272.47703"
       style="fill:none;stroke:#000000;stroke-width:1;stroke-linejoin:round;stroke-linecap:round" />
    <path
       id="rect3299"
       d="M 247.43674,211.44485 C 247.43674,211.44485 255.04475,214.72695 255.04475,214.72695 C 255.59412,214.96395 255.68572,215.40873 255.24904,215.72416 C 255.24904,215.72416 249.09015,220.17295 249.09015,220.17295 C 248.64784,220.49244 247.85024,220.55375 247.30291,220.31051 C 247.30291,220.31051 239.72373,216.94221 239.72373,216.94221 C 239.18929,216.7047 239.11431,216.26136 239.55452,215.94809 C 239.55452,215.94809 245.68459,211.58552 245.68459,211.58552 C 246.11924,211.27618 246.90023,211.21341 247.43674,211.44485 C 247.43674,211.44485 247.43674,211.44485 247.43674,211.44485"
       style="fill:none;stroke:#000000;stroke-width:1;stroke-linejoin:round;stroke-linecap:round" />
    <path
       id="rect3301"
       d="M 211.38791,264.687 C 211.38791,264.687 220.69642,269.32187 220.69642,269.32187 C 221.37384,269.65917 221.55369,270.21304 221.09728,270.56361 C 221.09728,270.56361 214.59913,275.55485 214.59913,275.55485 C 214.12804,275.9167 213.20005,275.92451 212.52093,275.57249 C 212.52093,275.57249 203.19239,270.73714 203.19239,270.73714 C 202.53988,270.39891 202.39682,269.84723 202.86919,269.50005 C 202.86919,269.50005 209.38739,264.7093 209.38739,264.7093 C 209.84537,264.37269 210.73656,264.36268 211.38791,264.687 C 211.38791,264.687 211.38791,264.687 211.38791,264.687"
       style="fill:none;stroke:#000000;stroke-width:1;stroke-linejoin:round;stroke-linecap:round" />
    <path
       id="rect3305"
       d="M 190.80124,251.03544 C 190.80124,251.03544 198.99762,255.5035 198.99762,255.5035 C 199.33669,255.68835 199.3609,256.01171 199.05255,256.22886 C 199.05255,256.22886 191.79012,261.34344 191.79012,261.34344 C 191.48252,261.56007 190.95608,261.59085 190.60912,261.41215 C 190.60912,261.41215 182.222,257.0924 182.222,257.0924 C 181.85741,256.90462 181.81745,256.57372 182.13313,256.35082 C 182.13313,256.35082 189.58629,251.08792 189.58629,251.08792 C 189.90275,250.86444 190.44492,250.8412 190.80124,251.03544 C 190.80124,251.03544 190.80124,251.03544 190.80124,251.03544"
       style="fill:none;stroke:#000000;stroke-width:1;stroke-linejoin:round;stroke-linecap:round" />
    <path
       id="rect3309"
       d="M 200.86922,319.47957 C 200.86922,319.47957 191.5626,327.32806 191.5626,327.32806 C 191.09111,327.72566 190.29604,327.80875 189.78059,327.51386 C 189.78059,327.51386 179.45944,321.6093 179.45944,321.6093 C 178.94568,321.31539 178.91894,320.76315 179.3988,320.37157 C 179.3988,320.37157 188.87097,312.64175 188.87097,312.64175 C 189.33581,312.26242 190.11645,312.18928 190.62199,312.47729 C 190.62199,312.47729 200.77757,318.26317 200.77757,318.26317 C 201.28475,318.55212 201.32593,319.09442 200.86922,319.47957 C 200.86922,319.47957 200.86922,319.47957 200.86922,319.47957"
       style="fill:none;stroke:#000000;stroke-width:1;stroke-linejoin:round;stroke-linecap:round" />
    <path
       id="rect3311"
       d="M 227.03328,279.37981 C 227.03328,279.37981 218.4746,275.11465 218.4746,275.11465 C 217.9779,274.86712 217.23368,274.93335 216.80449,275.26346 C 216.80449,275.26346 209.3489,280.99824 209.3489,280.99824 C 208.90258,281.34154 208.94628,281.82562 209.44841,282.08328 C 209.44841,282.08328 218.10282,286.52398 218.10282,286.52398 C 218.61686,286.78775 219.38667,286.71486 219.82736,286.36095 C 219.82736,286.36095 227.18725,280.45063 227.18725,280.45063 C 227.61081,280.1105 227.5415,279.63307 227.03328,279.37981 C 227.03328,279.37981 227.03328,279.37981 227.03328,279.37981"
       style="fill:none;stroke:#000000;stroke-width:1;stroke-linejoin:round;stroke-linecap:round" />
    <path
       id="rect3313"
       d="M 200.87727,244.07429 C 200.87727,244.07429 208.8242,248.35707 208.8242,248.35707 C 209.24365,248.58313 209.26299,248.99029 208.86725,249.27001 C 208.86725,249.27001 201.29858,254.61953 201.29858,254.61953 C 200.89969,254.90148 200.24107,254.94426 199.82216,254.71545 C 199.82216,254.71545 191.88613,250.38067 191.88613,250.38067 C 191.47181,250.15435 191.45917,249.7474 191.8575,249.46819 C 191.8575,249.46819 199.41526,244.17067 199.41526,244.17067 C 199.81044,243.89367 200.46234,243.85067 200.87727,244.07429 C 200.87727,244.07429 200.87727,244.07429 200.87727,244.07429"
       style="fill:none;stroke:#000000;stroke-width:1;stroke-linejoin:round;stroke-linecap:round" />
    <path
       id="rect3317"
       d="M 168.98052,312.35404 C 168.98052,312.35404 186.52228,298.92516 186.52228,298.92516 C 187.74742,297.98727 189.20942,297.50291 189.80916,297.83277 C 189.80916,297.83277 197.94313,302.30636 197.94313,302.30636 C 198.54751,302.63875 198.08283,303.67748 196.89261,304.64197 C 196.89261,304.64197 179.8462,318.45547 179.8462,318.45547 C 178.50836,319.53957 176.90663,320.12806 176.26526,319.76696 C 176.26526,319.76696 167.6358,314.90855 167.6358,314.90855 C 166.99971,314.55042 167.60418,313.40767 168.98052,312.35404 C 168.98052,312.35404 168.98052,312.35404 168.98052,312.35404"
       style="fill:none;stroke:#000000;stroke-width:1;stroke-linejoin:round;stroke-linecap:round" />
    <path
       id="rect3319"
       d="M 192.5101,290.87165 C 192.5101,290.87165 183.27464,285.95046 183.27464,285.95046 C 182.54633,285.56237 181.54412,285.5639 181.0251,285.95388 C 181.0251,285.95388 174.43893,290.90244 174.43893,290.90244 C 173.90432,291.3041 174.06146,291.95091 174.79375,292.35267 C 174.79375,292.35267 184.08217,297.44861 184.08217,297.44861 C 184.83581,297.86207 185.87162,297.86005 186.40206,297.44408 C 186.40206,297.44408 192.93525,292.32079 192.93525,292.32079 C 193.44997,291.91714 193.25925,291.27084 192.5101,290.87165 C 192.5101,290.87165 192.5101,290.87165 192.5101,290.87165"
       style="fill:none;stroke:#000000;stroke-width:1;stroke-linejoin:round;stroke-linecap:round" />
    <path
       id="rect3321"
       d="M 185.1382,279.89699 C 185.1382,279.89699 176.63387,275.50221 176.63387,275.50221 C 176.02877,275.18952 175.15088,275.21388 174.66322,275.55813 C 174.66322,275.55813 167.58535,280.55447 167.58535,280.55447 C 167.06223,280.92372 167.14522,281.48553 167.77396,281.81266 C 167.77396,281.81266 176.61165,286.41084 176.61165,286.41084 C 177.2442,286.73996 178.15674,286.69425 178.65527,286.3099 C 178.65527,286.3099 185.39983,281.11021 185.39983,281.11021 C 185.86446,280.752 185.74682,280.2115 185.1382,279.89699 C 185.1382,279.89699 185.1382,279.89699 185.1382,279.89699"
       style="fill:none;stroke:#000000;stroke-width:1;stroke-linejoin:round;stroke-linecap:round" />
    <path
       id="rect3323"
       d="M 161.12258,272.02905 C 161.12258,272.02905 169.7964,276.60989 169.7964,276.60989 C 170.21763,276.83236 170.27487,277.2137 169.92432,277.46528 C 169.92432,277.46528 162.60291,282.7196 162.60291,282.7196 C 162.24117,282.9792 161.60395,283.00656 161.17461,282.7806 C 161.17461,282.7806 152.33353,278.12732 152.33353,278.12732 C 151.90283,277.90063 151.85435,277.51172 152.22438,277.25569 C 152.22438,277.25569 159.71303,272.0738 159.71303,272.0738 C 160.07158,271.82571 160.70003,271.80589 161.12258,272.02905 C 161.12258,272.02905 161.12258,272.02905 161.12258,272.02905"
       style="fill:none;stroke:#000000;stroke-width:1;stroke-linejoin:round;stroke-linecap:round" />
    <path
       id="rect3325"
       d="M 220.2904,303.21609 C 220.2904,303.21609 213.19436,309.1832 213.19436,309.1832 C 212.74444,309.56153 211.88835,309.56212 211.27912,309.18598 C 211.27912,309.18598 202.00839,303.46232 202.00839,303.46232 C 201.45919,303.12325 201.36941,302.5694 201.80347,302.21926 C 201.80347,302.21926 208.65568,296.69198 208.65568,296.69198 C 209.07675,296.35232 209.86703,296.33025 210.43121,296.64355 C 210.43121,296.64355 219.94579,301.92755 219.94579,301.92755 C 220.57046,302.27448 220.72603,302.84974 220.2904,303.21609 C 220.2904,303.21609 220.2904,303.21609 220.2904,303.21609"
       style="fill:none;stroke:#000000;stroke-width:1;stroke-linejoin:round;stroke-linecap:round" />
    <path
       id="rect3327"
       d="M 250.18155,231.04893 C 250.18155,231.04893 243.02922,227.42687 243.02922,227.42687 C 242.31181,227.06355 241.28875,227.09263 240.73358,227.49361 C 240.73358,227.49361 235.06335,231.58914 235.06335,231.58914 C 234.48252,232.00866 234.60822,232.64785 235.34714,233.02061 C 235.34714,233.02061 242.71349,236.73664 242.71349,236.73664 C 243.44994,237.10815 244.49431,237.0604 245.05318,236.63127 C 245.05318,236.63127 250.50942,232.44177 250.50942,232.44177 C 251.04367,232.03155 250.89663,231.41106 250.18155,231.04893 C 250.18155,231.04893 250.18155,231.04893 250.18155,231.04893"
       style="fill:none;stroke:#000000;stroke-width:1;stroke-linejoin:round;stroke-linecap:round" />
    <path
       id="rect3329"
       d="M 241.73896,237.6183 C 241.73896,237.6183 234.09875,233.82511 234.09875,233.82511 C 233.42547,233.49084 232.47146,233.51871 231.96125,233.88804 C 231.96125,233.88804 226.11501,238.1202 226.11501,238.1202 C 225.60814,238.48713 225.74764,239.04628 226.42628,239.37343 C 226.42628,239.37343 234.12755,243.08611 234.12755,243.08611 C 234.78882,243.40491 235.72382,243.37142 236.22543,243.01146 C 236.22543,243.01146 242.01062,238.85982 242.01062,238.85982 C 242.51547,238.49751 242.39495,237.94399 241.73896,237.6183 C 241.73896,237.6183 241.73896,237.6183 241.73896,237.6183"
       style="fill:none;stroke:#000000;stroke-width:1;stroke-linejoin:round;stroke-linecap:round" />
    <path
       id="rect3331"
       d="M 291.06923,231.66501 C 291.06923,231.66501 299.93537,235.46017 299.93537,235.46017 C 300.49195,235.69842 300.62867,236.14494 300.23967,236.46046 C 300.23967,236.46046 293.79405,241.68879 293.79405,241.68879 C 293.40327,242.00578 292.65126,242.0569 292.11015,241.80432 C 292.11015,241.80432 283.49087,237.78134 283.49087,237.78134 C 282.98847,237.54685 282.88811,237.11468 283.26389,236.81155 C 283.26389,236.81155 289.4626,231.81108 289.4626,231.81108 C 289.83674,231.50927 290.5524,231.44378 291.06923,231.66501 C 291.06923,231.66501 291.06923,231.66501 291.06923,231.66501"
       style="fill:none;stroke:#000000;stroke-width:1;stroke-linejoin:round;stroke-linecap:round" />
    <path
       id="rect3333"
       d="M 214.6618,258.17714 C 214.6618,258.17714 205.79323,253.8565 205.79323,253.8565 C 205.30323,253.61778 204.58399,253.65545 204.17864,253.94061 C 204.17864,253.94061 196.98327,259.00223 196.98327,259.00223 C 196.56804,259.29434 196.62028,259.73235 197.10235,259.98475 C 197.10235,259.98475 205.83129,264.55497 205.83129,264.55497 C 206.34512,264.82401 207.10144,264.79412 207.5249,264.48748 C 207.5249,264.48748 214.85991,259.17623 214.85991,259.17623 C 215.27294,258.87715 215.18363,258.43136 214.6618,258.17714 C 214.6618,258.17714 214.6618,258.17714 214.6618,258.17714"
       style="fill:none;stroke:#000000;stroke-width:1;stroke-linejoin:round;stroke-linecap:round" />
    <path
       id="rect3335"
       d="M 238.61522,217.71027 C 238.61522,217.71027 246.20482,221.06648 246.20482,221.06648 C 246.74975,221.30745 246.80537,221.77975 246.32841,222.12581 C 246.32841,222.12581 239.55856,227.03746 239.55856,227.03746 C 239.06928,227.39242 238.23201,227.47949 237.68245,227.2323 C 237.68245,227.2323 230.0291,223.78987 230.0291,223.78987 C 229.48641,223.54578 229.44798,223.06823 229.94181,222.71952 C 229.94181,222.71952 236.77542,217.89409 236.77542,217.89409 C 237.25693,217.55409 238.07699,217.47225 238.61522,217.71027 C 238.61522,217.71027 238.61522,217.71027 238.61522,217.71027"
       style="fill:none;stroke:#000000;stroke-width:1;stroke-linejoin:round;stroke-linecap:round" />
    <path
       id="rect3337"
       d="M 228.91723,224.61205 C 228.91723,224.61205 236.61775,227.94965 236.61775,227.94965 C 237.17563,228.19144 237.24665,228.65958 236.77513,228.99941 C 236.77513,228.99941 230.06777,233.83356 230.06777,233.83356 C 229.58195,234.18369 228.73926,234.26255 228.18027,234.01019 C 228.18027,234.01019 220.46652,230.52787 220.46652,230.52787 C 219.92451,230.28318 219.88144,229.8127 220.36809,229.47313 C 220.36809,229.47313 227.0887,224.78372 227.0887,224.78372 C 227.56129,224.45396 228.37602,224.37747 228.91723,224.61205 C 228.91723,224.61205 228.91723,224.61205 228.91723,224.61205"
       style="fill:none;stroke:#000000;stroke-width:1;stroke-linejoin:round;stroke-linecap:round" />
    <path
       id="rect3339"
       d="M 257.14967,204.40311 C 257.14967,204.40311 265.32623,207.88176 265.32623,207.88176 C 265.67464,208.02998 265.706,208.33073 265.3957,208.55655 C 265.3957,208.55655 257.84099,214.05443 257.84099,214.05443 C 257.51021,214.29515 256.95402,214.3647 256.59485,214.20987 C 256.59485,214.20987 248.16698,210.57659 248.16698,210.57659 C 247.81135,210.42328 247.8009,210.11114 248.14264,209.87723 C 248.14264,209.87723 255.94863,204.53395 255.94863,204.53395 C 256.2693,204.31446 256.80459,204.25629 257.14967,204.40311 C 257.14967,204.40311 257.14967,204.40311 257.14967,204.40311"
       style="fill:none;stroke:#000000;stroke-width:1;stroke-linejoin:round;stroke-linecap:round" />
    <path
       id="rect3341"
       d="M 201.8511,271.34651 C 201.8511,271.34651 212.00249,276.52784 212.00249,276.52784 C 212.45381,276.7582 212.55592,277.14272 212.23112,277.39008 C 212.23112,277.39008 204.84954,283.01143 204.84954,283.01143 C 204.52035,283.26212 203.89008,283.27634 203.43671,283.04324 C 203.43671,283.04324 193.23937,277.8004 193.23937,277.8004 C 192.78929,277.56899 192.69387,277.18305 193.0251,276.9351 C 193.0251,276.9351 200.45262,271.37525 200.45262,271.37525 C 200.77944,271.1306 201.40305,271.11781 201.8511,271.34651 C 201.8511,271.34651 201.8511,271.34651 201.8511,271.34651"
       style="fill:none;stroke:#000000;stroke-width:1;stroke-linejoin:round;stroke-linecap:round" />
    <path
       id="rect3343"
       d="M 219.21667,231.1118 C 219.21667,231.1118 227.42383,234.84661 227.42383,234.84661 C 227.83744,235.03484 227.89363,235.38938 227.54865,235.64192 C 227.54865,235.64192 220.45221,240.83693 220.45221,240.83693 C 220.08929,241.10262 219.45708,241.15831 219.03594,240.96141 C 219.03594,240.96141 210.6819,237.05577 210.6819,237.05577 C 210.26995,236.86319 210.23739,236.50104 210.60771,236.24418 C 210.60771,236.24418 217.85107,231.21996 217.85107,231.21996 C 218.20329,230.97566 218.81185,230.92758 219.21667,231.1118 C 219.21667,231.1118 219.21667,231.1118 219.21667,231.1118"
       style="fill:none;stroke:#000000;stroke-width:1;stroke-linejoin:round;stroke-linecap:round" />
    <path
       id="rect3345"
       d="M 166.11203,294.40885 C 166.11203,294.40885 157.04241,289.52408 157.04241,289.52408 C 156.51843,289.24186 155.52217,289.42717 154.80588,289.94053 C 154.80588,289.94053 142.25863,298.93279 142.25863,298.93279 C 141.50124,299.47559 141.31352,300.15596 141.84075,300.45723 C 141.84075,300.45723 150.97129,305.67469 150.97129,305.67469 C 151.51617,305.98604 152.56442,305.78244 153.31853,305.21926 C 153.31853,305.21926 165.80481,295.89435 165.80481,295.89435 C 166.51725,295.36228 166.65299,294.70021 166.11203,294.40885 C 166.11203,294.40885 166.11203,294.40885 166.11203,294.40885"
       style="fill:none;stroke:#000000;stroke-width:1;stroke-linejoin:round;stroke-linecap:round" />
    <path
       id="rect3349"
       d="M 151.01455,278.70397 C 151.01455,278.70397 160.37455,283.62006 160.37455,283.62006 C 160.68292,283.78202 160.7229,284.06518 160.46357,284.25485 C 160.46357,284.25485 152.27741,290.24195 152.27741,290.24195 C 152.01084,290.43692 151.5497,290.45709 151.24414,290.28729 C 151.24414,290.28729 141.97268,285.13512 141.97268,285.13512 C 141.68247,284.97384 141.66152,284.69337 141.92511,284.50616 C 141.92511,284.50616 150.02275,278.75515 150.02275,278.75515 C 150.27937,278.57289 150.72146,278.55003 151.01455,278.70397 C 151.01455,278.70397 151.01455,278.70397 151.01455,278.70397"
       style="fill:none;stroke:#000000;stroke-width:1;stroke-linejoin:round;stroke-linecap:round" />
    <path
       id="rect3351"
       d="M 175.52443,287.1458 C 175.52443,287.1458 166.79876,282.52893 166.79876,282.52893 C 166.15936,282.19062 165.25137,282.21179 164.76171,282.57631 C 164.76171,282.57631 158.10028,287.53553 158.10028,287.53553 C 157.60379,287.90516 157.7174,288.48077 158.35625,288.82623 C 158.35625,288.82623 167.07489,293.541 167.07489,293.541 C 167.72676,293.8935 168.65274,293.87392 169.1498,293.49696 C 169.1498,293.49696 175.81827,288.43985 175.81827,288.43985 C 176.30838,288.06815 176.17677,287.49096 175.52443,287.1458 C 175.52443,287.1458 175.52443,287.1458 175.52443,287.1458"
       style="fill:none;stroke:#000000;stroke-width:1;stroke-linejoin:round;stroke-linecap:round" />
    <path
       id="rect3353"
       d="M 201.97097,283.45905 C 201.97097,283.45905 192.78768,278.74285 192.78768,278.74285 C 192.07622,278.37747 191.08839,278.3982 190.5689,278.78852 C 190.5689,278.78852 183.98269,283.7371 183.98269,283.7371 C 183.44857,284.1384 183.58158,284.77203 184.28486,285.15865 C 184.28486,285.15865 193.36778,290.15177 193.36778,290.15177 C 194.11817,290.56428 195.16258,290.55584 195.70514,290.13183 C 195.70514,290.13183 202.39168,284.90631 202.39168,284.90631 C 202.9188,284.49436 202.72924,283.84847 201.97097,283.45905 C 201.97097,283.45905 201.97097,283.45905 201.97097,283.45905"
       style="fill:none;stroke:#000000;stroke-width:1;stroke-linejoin:round;stroke-linecap:round" />
    <path
       id="rect3355"
       d="M 183.209,298.32124 C 183.209,298.32124 173.55788,293.23939 173.55788,293.23939 C 172.87828,292.88156 171.48018,293.22782 170.41912,294.01738 C 170.41912,294.01738 155.20003,305.34244 155.20003,305.34244 C 154.08849,306.16958 153.73855,307.14332 154.41967,307.52396 C 154.41967,307.52396 164.0962,312.93167 164.0962,312.93167 C 164.79619,313.32286 166.25692,312.95103 167.36704,312.09976 C 167.36704,312.09976 182.56068,300.44889 182.56068,300.44889 C 183.61957,299.63691 183.90689,298.68872 183.209,298.32124 C 183.209,298.32124 183.209,298.32124 183.209,298.32124"
       style="fill:none;stroke:#000000;stroke-width:1;stroke-linejoin:round;stroke-linecap:round" />
    <path
       id="rect3357"
       d="M 181.25173,257.89055 C 181.25173,257.89055 189.52937,262.19408 189.52937,262.19408 C 189.93309,262.40396 189.973,262.78951 189.61763,263.05932 C 189.61763,263.05932 182.01974,268.82803 182.01974,268.82803 C 181.63543,269.11981 180.98628,269.17817 180.56566,268.95795 C 180.56566,268.95795 171.94248,264.44335 171.94248,264.44335 C 171.5243,264.2244 171.5122,263.82114 171.91393,263.54006 C 171.91393,263.54006 179.85732,257.98241 179.85732,257.98241 C 180.2289,257.72244 180.85025,257.68182 181.25173,257.89055 C 181.25173,257.89055 181.25173,257.89055 181.25173,257.89055"
       style="fill:none;stroke:#000000;stroke-width:1;stroke-linejoin:round;stroke-linecap:round" />
    <path
       id="rect3359"
       d="M 207.30074,294.9799 C 207.30074,294.9799 198.59287,290.54083 198.59287,290.54083 C 198.06485,290.27167 197.31412,290.31751 196.90812,290.6428 C 196.90812,290.6428 190.40778,295.85065 190.40778,295.85065 C 190.00268,296.17521 190.08929,296.66071 190.60345,296.94008 C 190.60345,296.94008 199.08253,301.54721 199.08253,301.54721 C 199.62684,301.84297 200.40395,301.81213 200.82331,301.47711 C 200.82331,301.47711 207.55245,296.10117 207.55245,296.10117 C 207.97277,295.76537 207.85976,295.26488 207.30074,294.9799 C 207.30074,294.9799 207.30074,294.9799 207.30074,294.9799"
       style="fill:none;stroke:#000000;stroke-width:1;stroke-linejoin:round;stroke-linecap:round" />
    <path
       id="rect3361"
       d="M 210.31834,311.52693 C 210.31834,311.52693 203.74605,316.99659 203.74605,316.99659 C 203.0788,317.55189 201.86,317.61152 201.01035,317.12644 C 201.01035,317.12644 192.24289,312.121 192.24289,312.121 C 191.3355,311.60296 191.17426,310.72413 191.88471,310.15474 C 191.88471,310.15474 198.87844,304.54948 198.87844,304.54948 C 199.56891,303.99608 200.82226,303.98204 201.68556,304.51382 C 201.68556,304.51382 210.03168,309.65489 210.03168,309.65489 C 210.84096,310.15338 210.96757,310.98662 210.31834,311.52693 C 210.31834,311.52693 210.31834,311.52693 210.31834,311.52693"
       style="fill:none;stroke:#000000;stroke-width:1;stroke-linejoin:round;stroke-linecap:round" />
    <path
       id="rect3363"
       d="M 229.40869,295.58217 C 229.40869,295.58217 223.04271,300.94565 223.04271,300.94565 C 222.48275,301.41742 221.41805,301.45214 220.65599,301.0225 C 220.65599,301.0225 211.86431,296.06605 211.86431,296.06605 C 211.09687,295.63339 210.94055,294.9076 211.51326,294.43967 C 211.51326,294.43967 218.02408,289.12024 218.02408,289.12024 C 218.58411,288.66268 219.64217,288.64028 220.39694,289.06907 C 220.39694,289.06907 229.04379,293.98149 229.04379,293.98149 C 229.79334,294.40733 229.95631,295.12081 229.40869,295.58217 C 229.40869,295.58217 229.40869,295.58217 229.40869,295.58217"
       style="fill:none;stroke:#000000;stroke-width:1;stroke-linejoin:round;stroke-linecap:round" />
    <path
       id="rect3365"
       d="M 217.05231,287.26056 C 217.05231,287.26056 208.43084,282.90987 208.43084,282.90987 C 207.9153,282.6497 207.16011,282.70044 206.73573,283.02431 C 206.73573,283.02431 199.50923,288.5392 199.50923,288.5392 C 199.05894,288.88283 199.11946,289.38044 199.64696,289.65417 C 199.64696,289.65417 208.47177,294.23353 208.47177,294.23353 C 209.01197,294.51386 209.80095,294.45066 210.23875,294.09263 C 210.23875,294.09263 217.26191,288.3491 217.26191,288.3491 C 217.67418,288.01194 217.57986,287.52677 217.05231,287.26056 C 217.05231,287.26056 217.05231,287.26056 217.05231,287.26056"
       style="fill:none;stroke:#000000;stroke-width:1;stroke-linejoin:round;stroke-linecap:round" />
    <path
       id="rect3367"
       d="M 170.90895,265.27133 C 170.90895,265.27133 179.32655,269.62137 179.32655,269.62137 C 179.80913,269.87078 179.87784,270.30382 179.47992,270.59253 C 179.47992,270.59253 172.41934,275.71508 172.41934,275.71508 C 172.01209,276.01056 171.29204,276.04365 170.8056,275.78907 C 170.8056,275.78907 162.3215,271.34911 162.3215,271.34911 C 161.84045,271.09734 161.7847,270.66085 162.19576,270.37059 C 162.19576,270.37059 169.32283,265.33795 169.32283,265.33795 C 169.72453,265.05428 170.43163,265.02465 170.90895,265.27133 C 170.90895,265.27133 170.90895,265.27133 170.90895,265.27133"
       style="fill:none;stroke:#000000;stroke-width:1;stroke-linejoin:round;stroke-linecap:round" />
    <path
       id="rect3369"
       d="M 204.55438,265.20903 C 204.55438,265.20903 195.83444,260.74237 195.83444,260.74237 C 195.21646,260.42583 194.32033,260.45289 193.82368,260.80347 C 193.82368,260.80347 186.74496,265.80041 186.74496,265.80041 C 186.23123,266.16305 186.32053,266.71769 186.94675,267.04351 C 186.94675,267.04351 195.78441,271.64167 195.78441,271.64167 C 196.41947,271.97209 197.33877,271.93803 197.84403,271.56578 C 197.84403,271.56578 204.80505,266.43735 204.80505,266.43735 C 205.29337,266.07757 205.18091,265.52994 204.55438,265.20903 C 204.55438,265.20903 204.55438,265.20903 204.55438,265.20903"
       style="fill:none;stroke:#000000;stroke-width:1;stroke-linejoin:round;stroke-linecap:round" />
    <path
       id="rect3371"
       d="M 194.5991,272.5456 C 194.5991,272.5456 186.09478,268.15083 186.09478,268.15083 C 185.48971,267.83814 184.61179,267.8625 184.12412,268.20675 C 184.12412,268.20675 177.04625,273.20308 177.04625,273.20308 C 176.52314,273.57235 176.60616,274.13416 177.23487,274.46127 C 177.23487,274.46127 186.07255,279.05946 186.07255,279.05946 C 186.70512,279.38857 187.61765,279.34288 188.11618,278.95853 C 188.11618,278.95853 194.86074,273.75884 194.86074,273.75884 C 195.32537,273.40062 195.20773,272.86013 194.5991,272.5456 C 194.5991,272.5456 194.5991,272.5456 194.5991,272.5456"
       style="fill:none;stroke:#000000;stroke-width:1;stroke-linejoin:round;stroke-linecap:round" />
    <path
       id="rect3373"
       d="M 284.73208,249.18471 C 284.73208,249.18471 291.64382,243.45826 291.64382,243.45826 C 291.9322,243.21935 291.84218,242.87732 291.44316,242.6915 C 291.44316,242.6915 282.28362,238.42609 282.28362,238.42609 C 281.90552,238.25002 281.37123,238.2925 281.08461,238.52125 C 281.08461,238.52125 274.21817,244.0015 274.21817,244.0015 C 273.92236,244.23759 273.98607,244.57745 274.36212,244.76359 C 274.36212,244.76359 283.47634,249.2752 283.47634,249.2752 C 283.87359,249.47184 284.43418,249.43153 284.73208,249.18471 C 284.73208,249.18471 284.73208,249.18471 284.73208,249.18471"
       style="fill:none;stroke:#000000;stroke-width:1;stroke-linejoin:round;stroke-linecap:round" />
    <path
       id="rect3375"
       d="M 266.25849,207.11055 C 266.25849,207.11055 258.22296,203.68087 258.22296,203.68087 C 257.8725,203.5313 258.26258,202.94141 259.09217,202.36158 C 259.09217,202.36158 276.45653,190.22478 276.45653,190.22478 C 277.16993,189.72614 278.01001,189.4307 278.34442,189.55973 C 278.34442,189.55973 286.00228,192.51461 286.00228,192.51461 C 286.34641,192.64741 286.06579,193.16868 285.36877,193.68615 C 285.36877,193.68615 268.38219,206.29734 268.38219,206.29734 C 267.56963,206.9006 266.62006,207.26486 266.25849,207.11055 C 266.25849,207.11055 266.25849,207.11055 266.25849,207.11055"
       style="fill:none;stroke:#000000;stroke-width:1;stroke-linejoin:round;stroke-linecap:round" />
    <path
       id="rect3377"
       d="M 150.04703,290.88787 C 150.04703,290.88787 141.14376,285.97573 141.14376,285.97573 C 140.70469,285.73348 139.97814,285.80683 139.51431,286.13998 C 139.51431,286.13998 130.20189,292.82886 130.20189,292.82886 C 129.7371,293.1627 129.71188,293.62984 130.14579,293.87645 C 130.14579,293.87645 138.94417,298.87711 138.94417,298.87711 C 139.38768,299.12918 140.1235,299.05996 140.59351,298.72169 C 140.59351,298.72169 150.01083,291.94429 150.01083,291.94429 C 150.47987,291.60674 150.49581,291.13546 150.04703,290.88787 C 150.04703,290.88787 150.04703,290.88787 150.04703,290.88787"
       style="fill:none;stroke:#000000;stroke-width:1;stroke-linejoin:round;stroke-linecap:round" />
    <path
       id="rect3379"
       sodipodi:nodetypes="cccccssssccccc"
       d="M 308.02082,201.07469 C 308.02082,201.07469 290.25388,194.17877 290.25388,194.17877 C 289.03643,193.70622 287.49217,193.72395 286.81047,194.22762 C 286.81047,194.22762 274.92805,203.00701 274.92805,203.00701 C 274.21432,203.53434 274.06866,203.98769 275.45256,204.3729 L 282.20799,207.13372 C 283.30081,207.58033 283.29864,207.60345 284.24763,206.91193 L 285.51228,205.99038 C 285.78882,205.78886 286.61757,205.71073 287.50613,206.09359 L 296.65875,210.03701 C 297.66812,210.31796 298.54496,210.40349 299.11475,209.9558 C 299.11475,209.9558 308.63657,202.4745 308.63657,202.4745 C 309.1849,202.04368 308.91548,201.42193 308.02082,201.07469 C 308.02082,201.07469 308.02082,201.07469 308.02082,201.07469"
       style="fill:none;stroke:#000000;stroke-width:1;stroke-linejoin:round;stroke-linecap:round" />
    <path
       id="rect3381"
       d="M 263.00018,250.94679 C 263.00018,250.94679 254.5221,247.0388 254.5221,247.0388 C 254.08593,246.83775 253.46532,246.88652 253.12956,247.148 C 253.12956,247.148 246.6785,252.17186 246.6785,252.17186 C 246.33694,252.43788 246.40946,252.82015 246.84217,253.0292 C 246.84217,253.0292 255.25442,257.09309 255.25442,257.09309 C 255.70512,257.31082 256.34668,257.26542 256.6918,256.99111 C 256.6918,256.99111 263.20867,251.81133 263.20867,251.81133 C 263.54778,251.54179 263.45431,251.15613 263.00018,250.94679 C 263.00018,250.94679 263.00018,250.94679 263.00018,250.94679"
       style="fill:none;stroke:#000000;stroke-width:1;stroke-linejoin:round;stroke-linecap:round" />
    <path
       id="rect3385"
       d="M 224.63535,250.5847 C 224.63535,250.5847 216.40989,246.52591 216.40989,246.52591 C 215.79702,246.2235 214.86783,246.29035 214.3264,246.67645 C 214.3264,246.67645 206.94803,251.93833 206.94803,251.93833 C 206.39716,252.33118 206.45553,252.89148 207.07898,253.19391 C 207.07898,253.19391 215.44611,257.2528 215.44611,257.2528 C 216.0613,257.55121 216.99156,257.47468 217.53182,257.08184 C 217.53182,257.08184 224.76854,251.81989 224.76854,251.81989 C 225.29959,251.43374 225.24017,250.88315 224.63535,250.5847 C 224.63535,250.5847 224.63535,250.5847 224.63535,250.5847"
       style="fill:none;stroke:#000000;stroke-width:1;stroke-linejoin:round;stroke-linecap:round" />
    <path
       id="rect3387"
       d="M 220.79919,257.76358 C 220.79919,257.76358 229.7534,262.16116 229.7534,262.16116 C 230.47771,262.51688 230.65884,263.11821 230.15739,263.5097 C 230.15739,263.5097 223.79138,268.4796 223.79138,268.4796 C 223.27442,268.8832 222.26833,268.91225 221.53782,268.54453 C 221.53782,268.54453 212.50868,263.9994 212.50868,263.9994 C 211.79484,263.64005 211.64287,263.03537 212.16581,262.64384 C 212.16581,262.64384 218.60675,257.8215 218.60675,257.8215 C 219.11421,257.44156 220.09111,257.41585 220.79919,257.76358 C 220.79919,257.76358 220.79919,257.76358 220.79919,257.76358"
       style="fill:none;stroke:#000000;stroke-width:1;stroke-linejoin:round;stroke-linecap:round" />
    <path
       id="rect3389"
       d="M 209.90305,237.93879 C 209.90305,237.93879 217.69144,241.5189 217.69144,241.5189 C 218.2857,241.79206 218.40792,242.28161 217.95894,242.61539 C 217.95894,242.61539 211.48141,247.43084 211.48141,247.43084 C 211.00555,247.78462 210.15328,247.81772 209.57718,247.50651 C 209.57718,247.50651 202.04394,243.43694 202.04394,243.43694 C 201.54218,243.16588 201.50989,242.69331 201.96601,242.37623 C 201.96601,242.37623 208.18868,238.05054 208.18868,238.05054 C 208.62095,237.75004 209.38314,237.69979 209.90305,237.93879 C 209.90305,237.93879 209.90305,237.93879 209.90305,237.93879"
       style="fill:none;stroke:#000000;stroke-width:1;stroke-linejoin:round;stroke-linecap:round" />
    <path
       id="rect3391"
       d="M 300.49388,221.41753 C 300.49388,221.41753 318.37188,206.97394 318.37188,206.97394 C 319.2072,206.29909 319.56463,205.63506 319.17704,205.48324 C 319.17704,205.48324 311.44233,202.45361 311.44233,202.45361 C 311.07717,202.31058 310.12278,202.71434 309.29892,203.3606 C 309.29892,203.3606 291.6901,217.17374 291.6901,217.17374 C 290.79969,217.87223 290.3631,218.57498 290.71507,218.74754 C 290.71507,218.74754 298.1804,222.40777 298.1804,222.40777 C 298.55498,222.59143 299.58864,222.1489 300.49388,221.41753 C 300.49388,221.41753 300.49388,221.41753 300.49388,221.41753"
       style="fill:none;stroke:#000000;stroke-width:1;stroke-linejoin:round;stroke-linecap:round" />
    <path
       d="M 258.97104,224.63939 C 258.97104,224.63939 251.83463,221.23656 251.83463,221.23656 C 251.14159,220.90611 250.14534,220.95426 249.59505,221.34461 C 249.59505,221.34461 243.94919,225.34942 243.94919,225.34942 C 243.36824,225.76151 243.45494,226.38105 244.14978,226.73848 C 244.14978,226.73848 251.31231,230.42301 251.31231,230.42301 C 252.05284,230.80395 253.12041,230.75512 253.69927,230.31357 C 253.69927,230.31357 259.31886,226.02706 259.31886,226.02706 C 259.86601,225.60971 259.70806,224.99085 258.97104,224.63939 C 258.97104,224.63939 258.97104,224.63939 258.97104,224.63939"
       id="path13125"
       style="fill:none;stroke:#000000;stroke-width:1;stroke-linejoin:round;stroke-linecap:round" />
    <path
       d="M 245.03115,264.95865 C 245.03115,264.95865 236.89775,261.02915 236.89775,261.02915 C 236.29828,260.73954 235.41666,260.81767 234.92021,261.2046 C 234.92021,261.2046 228.15537,266.47697 228.15537,266.47697 C 227.65036,266.87057 227.72859,267.42473 228.33161,267.71924 C 228.33161,267.71924 236.5135,271.71529 236.5135,271.71529 C 237.12168,272.01232 238.01565,271.93037 238.51705,271.53179 C 238.51705,271.53179 245.23339,266.19289 245.23339,266.19289 C 245.7263,265.80109 245.63571,265.25074 245.03115,264.95865 C 245.03115,264.95865 245.03115,264.95865 245.03115,264.95865"
       id="path13127"
       style="fill:none;stroke:#000000;stroke-width:1;stroke-linejoin:round;stroke-linecap:round" />
    <path
       d="M 241.3425,254.88757 C 241.3425,254.88757 247.17841,250.38791 247.17841,250.38791 C 247.6407,250.03146 247.43669,249.46639 246.72219,249.12079 C 246.72219,249.12079 237.84809,244.82838 237.84809,244.82838 C 237.14306,244.48737 236.20078,244.49428 235.73414,244.84402 C 235.73414,244.84402 229.84385,249.25863 229.84385,249.25863 C 229.36826,249.61507 229.55538,250.18212 230.26467,250.52985 C 230.26467,250.52985 239.19316,254.90731 239.19316,254.90731 C 239.9121,255.25978 240.87126,255.2509 241.3425,254.88757 C 241.3425,254.88757 241.3425,254.88757 241.3425,254.88757"
       id="path13129"
       style="fill:none;stroke:#000000;stroke-width:1;stroke-linejoin:round;stroke-linecap:round" />
    <path
       id="path13131"
       d="M 250.09625,248.10772 C 250.09625,248.10772 256.04021,243.39795 256.04021,243.39795 C 256.61443,242.94295 256.40961,242.26587 255.58606,241.87803 C 255.58606,241.87803 247.4695,238.05567 247.4695,238.05567 C 246.66725,237.67787 245.54243,237.71942 244.94236,238.15046 C 244.94236,238.15046 238.73449,242.60981 238.73449,242.60981 C 238.09034,243.07251 238.23366,243.77042 239.06151,244.17275 C 239.06151,244.17275 247.44196,248.2456 247.44196,248.2456 C 248.29278,248.65909 249.47914,248.5967 250.09625,248.10772 C 250.09625,248.10772 250.09625,248.10772 250.09625,248.10772"
       style="fill:none;stroke:#000000;stroke-width:1;stroke-linejoin:round;stroke-linecap:round" />
    <path
       id="path13133"
       d="M 270.78129,244.1004 C 270.78129,244.1004 263.16585,240.54998 263.16585,240.54998 C 262.59905,240.28573 261.81284,240.33065 261.40189,240.65211 C 261.40189,240.65211 255.67209,245.13428 255.67209,245.13428 C 255.23437,245.47666 255.35686,245.97255 255.94801,246.24454 C 255.94801,246.24454 263.88891,249.89826 263.88891,249.89826 C 264.4733,250.16714 265.27704,250.1004 265.6898,249.75019 C 265.6898,249.75019 271.09419,245.16472 271.09419,245.16472 C 271.48189,244.83578 271.34185,244.36173 270.78129,244.1004 C 270.78129,244.1004 270.78129,244.1004 270.78129,244.1004"
       style="fill:none;stroke:#000000;stroke-width:1;stroke-linejoin:round;stroke-linecap:round" />
    <path
       id="path13135"
       d="M 279.36283,237.13131 C 279.36283,237.13131 271.95158,233.79368 271.95158,233.79368 C 271.36993,233.53174 270.52181,233.61628 270.04782,233.98311 C 270.04782,233.98311 264.05529,238.62092 264.05529,238.62092 C 263.57067,238.99597 263.64455,239.51827 264.22306,239.79213 C 264.22306,239.79213 271.59655,243.28243 271.59655,243.28243 C 272.19767,243.56699 273.0762,243.48424 273.56398,243.09674 C 273.56398,243.09674 279.59427,238.30625 279.59427,238.30625 C 280.07112,237.92743 279.96688,237.40335 279.36283,237.13131 C 279.36283,237.13131 279.36283,237.13131 279.36283,237.13131"
       style="fill:none;stroke:#000000;stroke-width:1;stroke-linejoin:round;stroke-linecap:round" />
    <path
       d="M 259.13878,241.01984 C 259.13878,241.01984 264.94427,236.50262 264.94427,236.50262 C 265.5183,236.05597 265.27718,235.39329 264.41129,235.01866 C 264.41129,235.01866 256.13903,231.43971 256.13903,231.43971 C 255.34632,231.09675 254.26614,231.15807 253.71044,231.57558 C 253.71044,231.57558 248.09408,235.79517 248.09408,235.79517 C 247.52482,236.22286 247.6843,236.86458 248.45835,237.23578 C 248.45835,237.23578 256.54144,241.11225 256.54144,241.11225 C 257.38813,241.51828 258.54995,241.47801 259.13878,241.01984 C 259.13878,241.01984 259.13878,241.01984 259.13878,241.01984"
       id="path14377"
       style="fill:none;stroke:#000000;stroke-width:1;stroke-linejoin:round;stroke-linecap:round" />
    <path
       d="M 232.79455,261.43519 C 232.79455,261.43519 238.72958,256.85909 238.72958,256.85909 C 239.16465,256.52365 238.9726,255.99183 238.3001,255.66653 C 238.3001,255.66653 229.27525,251.30123 229.27525,251.30123 C 228.61176,250.98029 227.72493,250.98679 227.28579,251.31591 C 227.28579,251.31591 221.29544,255.80552 221.29544,255.80552 C 220.84778,256.14104 221.02387,256.67471 221.69138,257.00198 C 221.69138,257.00198 230.77154,261.45377 230.77154,261.45377 C 231.44822,261.78553 232.35098,261.77719 232.79455,261.43519 C 232.79455,261.43519 232.79455,261.43519 232.79455,261.43519"
       id="path14379"
       style="fill:none;stroke:#000000;stroke-width:1;stroke-linejoin:round;stroke-linecap:round" />
    <path
       d="M 254.17375,257.48652 C 254.17375,257.48652 246.32963,253.73115 246.32963,253.73115 C 245.70901,253.43402 244.79483,253.51721 244.27828,253.91779 C 244.27828,253.91779 237.75243,258.97869 237.75243,258.97869 C 237.22504,259.38768 237.29958,259.96347 237.92117,260.26957 C 237.92117,260.26957 245.77862,264.13893 245.77862,264.13893 C 246.41397,264.45181 247.35058,264.36687 247.87695,263.94859 C 247.87695,263.94859 254.38946,258.77374 254.38946,258.77374 C 254.90487,258.36419 254.80792,257.79015 254.17375,257.48652 C 254.17375,257.48652 254.17375,257.48652 254.17375,257.48652"
       id="path14381"
       style="fill:none;stroke:#000000;stroke-width:1;stroke-linejoin:round;stroke-linecap:round" />
    <path
       id="path14383"
       d="M 233.03678,243.79425 C 233.03678,243.79425 225.48646,240.13918 225.48646,240.13918 C 224.74342,239.77949 223.69299,239.82194 223.12841,240.23388 C 223.12841,240.23388 217.44731,244.37905 217.44731,244.37905 C 216.874,244.79736 217.00415,245.4333 217.742,245.80545 C 217.742,245.80545 225.24071,249.58767 225.24071,249.58767 C 226.00503,249.97318 227.0886,249.93684 227.66722,249.50562 C 227.66722,249.50562 233.39989,245.23329 233.39989,245.23329 C 233.96951,244.80878 233.80621,244.16674 233.03678,243.79425 C 233.03678,243.79425 233.03678,243.79425 233.03678,243.79425"
       style="fill:none;stroke:#000000;stroke-width:1;stroke-linejoin:round;stroke-linecap:round" />
    <path
       d="M 282.03015,224.70872 C 282.03015,224.70872 287.9774,220.08364 287.9774,220.08364 C 288.56519,219.62653 289.56121,219.51344 290.21268,219.82947 C 290.21268,219.82947 296.76597,223.00851 296.76597,223.00851 C 297.42707,223.32921 297.49209,223.96249 296.90969,224.429 C 296.90969,224.429 291.01609,229.14982 291.01609,229.14982 C 290.41797,229.62893 289.39806,229.74916 288.73146,229.41875 C 288.73146,229.41875 282.12452,226.14398 282.12452,226.14398 C 281.4678,225.81845 281.42665,225.17805 282.03015,224.70872 C 282.03015,224.70872 282.03015,224.70872 282.03015,224.70872"
       id="path14385"
       style="fill:none;stroke:#000000;stroke-width:1;stroke-linejoin:round;stroke-linecap:round" />
    <path
       id="path20314"
       d="M 274.59176,213.04701 C 274.59176,213.04701 267.63301,209.8841 267.63301,209.8841 C 266.9305,209.56479 265.98277,209.58635 265.5079,209.93372 C 265.5079,209.93372 260.69581,213.4537 260.69581,213.4537 C 260.20677,213.81142 260.39277,214.35936 261.11308,214.68093 C 261.11308,214.68093 268.24694,217.86572 268.24694,217.86572 C 268.95551,218.18206 269.90543,218.14595 270.37662,217.78604 C 270.37662,217.78604 275.0136,214.24417 275.0136,214.24417 C 275.47126,213.89461 275.28303,213.36122 274.59176,213.04701 C 274.59176,213.04701 274.59176,213.04701 274.59176,213.04701"
       style="fill:none;stroke:#000000;stroke-width:1;stroke-linejoin:round;stroke-linecap:round" />
    <path
       d="M 292.00448,215.55279 C 292.00448,215.55279 296.3664,212.1569 296.3664,212.1569 C 296.79902,211.82008 296.4902,211.27517 295.67813,210.9361 C 295.67813,210.9361 287.77738,207.63715 287.77738,207.63715 C 287.00644,207.31524 286.04433,207.31631 285.61635,207.63866 C 285.61635,207.63866 281.30257,210.88766 281.30257,210.88766 C 280.86653,211.21606 281.12901,211.75032 281.89503,212.08646 C 281.89503,212.08646 289.74764,215.53227 289.74764,215.53227 C 290.55499,215.88655 291.56345,215.89614 292.00448,215.55279 C 292.00448,215.55279 292.00448,215.55279 292.00448,215.55279"
       id="path20316"
       style="fill:none;stroke:#000000;stroke-width:1;stroke-linejoin:round;stroke-linecap:round" />
    <path
       id="path20318"
       d="M 284.72744,221.17105 C 284.72744,221.17105 289.45459,217.54272 289.45459,217.54272 C 289.926,217.18089 289.66619,216.61851 288.87179,216.28131 C 288.87179,216.28131 280.90373,212.899 280.90373,212.899 C 280.10221,212.55875 279.07175,212.57593 278.59356,212.93801 C 278.59356,212.93801 273.79834,216.56885 273.79834,216.56885 C 273.31611,216.93397 273.57888,217.50206 274.38726,217.84205 C 274.38726,217.84205 282.42339,221.22188 282.42339,221.22188 C 283.22457,221.55883 284.25207,221.53592 284.72744,221.17105 C 284.72744,221.17105 284.72744,221.17105 284.72744,221.17105"
       style="fill:none;stroke:#000000;stroke-width:1;stroke-linejoin:round;stroke-linecap:round" />
    <path
       d="M 280.70619,208.18882 C 280.70619,208.18882 273.65334,205.39325 273.65334,205.39325 C 272.99267,205.13139 272.16292,205.14273 271.78475,205.41678 C 271.78475,205.41678 267.9355,208.20633 267.9355,208.20633 C 267.54254,208.4911 267.73876,208.95315 268.38364,209.24454 C 268.38364,209.24454 275.27945,212.36039 275.27945,212.36039 C 276.01926,212.69466 276.95281,212.71002 277.36247,212.39198 C 277.36247,212.39198 281.36853,209.28183 281.36853,209.28183 C 281.76145,208.97678 281.46158,208.48822 280.70619,208.18882 C 280.70619,208.18882 280.70619,208.18882 280.70619,208.18882"
       id="path20320"
       style="fill:none;stroke:#000000;stroke-width:1;stroke-linejoin:round;stroke-linecap:round" />
    <path
       id="path20322"
       d="M 267.13462,218.61017 C 267.13462,218.61017 260.04553,215.39646 260.04553,215.39646 C 259.35688,215.08427 258.39121,215.12387 257.87608,215.4844 C 257.87608,215.4844 252.67496,219.12445 252.67496,219.12445 C 252.14829,219.49305 252.26711,220.05491 252.94569,220.38521 C 252.94569,220.38521 259.93387,223.78674 259.93387,223.78674 C 260.65566,224.13807 261.67299,224.1096 262.21011,223.72182 C 262.21011,223.72182 267.5121,219.8939 267.5121,219.8939 C 268.03699,219.51494 267.86652,218.94196 267.13462,218.61017 C 267.13462,218.61017 267.13462,218.61017 267.13462,218.61017"
       style="fill:none;stroke:#000000;stroke-width:1;stroke-linejoin:round;stroke-linecap:round" />
    <path
       d="M 287.7354,230.25946 C 287.7354,230.25946 281.08316,227.00351 281.08316,227.00351 C 280.40678,226.67245 279.40568,226.75692 278.83891,227.19481 C 278.83891,227.19481 273.09436,231.63291 273.09436,231.63291 C 272.51043,232.08403 272.60418,232.71336 273.30418,233.04198 C 273.30418,233.04198 280.18673,236.27314 280.18673,236.27314 C 280.86539,236.59174 281.86259,236.48569 282.42295,236.03722 C 282.42295,236.03722 287.93718,231.62391 287.93718,231.62391 C 288.48138,231.18834 288.39153,230.58062 287.7354,230.25946 C 287.7354,230.25946 287.7354,230.25946 287.7354,230.25946"
       id="path20324"
       style="fill:none;stroke:#000000;stroke-width:1;stroke-linejoin:round;stroke-linecap:round" />
    <path
       id="path20326"
       d="M 267.94729,234.14015 C 267.94729,234.14015 273.40476,229.94747 273.40476,229.94747 C 273.94662,229.5312 273.71505,228.90956 272.88832,228.55398 C 272.88832,228.55398 264.75456,225.0556 264.75456,225.0556 C 263.95198,224.71041 262.87291,224.75882 262.33246,225.16387 C 262.33246,225.16387 256.88991,229.24286 256.88991,229.24286 C 256.34026,229.6548 256.54039,230.27309 257.34135,230.62945 C 257.34135,230.62945 265.46021,234.24152 265.46021,234.24152 C 266.28553,234.60871 267.39604,234.56364 267.94729,234.14015 C 267.94729,234.14015 267.94729,234.14015 267.94729,234.14015"
       style="fill:none;stroke:#000000;stroke-width:1;stroke-linejoin:round;stroke-linecap:round" />
    <path
       id="path21282"
       d="M 276.32923,227.66222 C 276.32923,227.66222 281.90001,223.35623 281.90001,223.35623 C 282.4517,222.9298 282.23314,222.31013 281.41303,221.96694 C 281.41303,221.96694 273.34754,218.59182 273.34754,218.59182 C 272.55203,218.25892 271.46937,218.32422 270.91711,218.73813 C 270.91711,218.73813 265.34181,222.91665 265.34181,222.91665 C 264.77733,223.33971 264.96112,223.95828 265.75691,224.30368 C 265.75691,224.30368 273.82693,227.80624 273.82693,227.80624 C 274.64767,228.16246 275.7651,228.09826 276.32923,227.66222 C 276.32923,227.66222 276.32923,227.66222 276.32923,227.66222"
       style="fill:none;stroke:#000000;stroke-width:1;stroke-linejoin:round;stroke-linecap:round" />
    <path
       inkscape:transform-center-x="21.926591"
       inkscape:transform-center-y="-98.60823"
       d="M 65.088465,277.78657 L 56.641394,273.5449 L 27.882376,75.746856"
       sodipodi:nodetypes="ccc"
       id="path2180"
       style="fill:none;stroke:#000000;stroke-width:1;stroke-linejoin:round;stroke-linecap:round" />
    <path
       id="path13298"
       sodipodi:nodetypes="ccccc"
       d="M 92.828627,259.35202 L 230.90672,174.71526 C 232.64824,175.78414 234.17161,176.98389 234.23083,179.06216 L 96.66413,263.82678 C 96.420949,261.86067 95.117349,260.38059 92.828627,259.35202 z"
       style="fill:none;stroke:#000000;stroke-width:1;stroke-linejoin:round;stroke-linecap:round" />
  </g>
</svg>
